<svg width="132" height="30" viewBox="0 0 132 30" fill="none" xmlns="http://www.w3.org/2000/svg">
<path d="M18.4096 6.05881V10.0717H9.49572V12.5252H18.4096V16.538H9.49572V19.9075H18.4096V23.9203H1V6.05881H18.4096ZM23.0207 6.05881H35.8523C36.784 6.05881 37.5837 6.38958 38.2513 7.05112C38.919 7.71266 39.2528 8.50505 39.2528 9.42829V12.1653H30.7681V11.3802C30.7681 11.024 30.636 10.7187 30.3719 10.4642C30.1151 10.2025 29.807 10.0717 29.4475 10.0717C29.0733 10.0717 28.7578 10.2025 28.5011 10.4642C28.2443 10.7187 28.1159 11.024 28.1159 11.3802V11.9581C28.1159 12.3071 28.292 12.5252 28.6441 12.6124L37.503 14.597C38.6695 14.8587 39.2528 15.5857 39.2528 16.7779V20.5508C39.2528 21.4814 38.919 22.2774 38.2513 22.9389C37.5837 23.5932 36.784 23.9203 35.8523 23.9203H23.0207C22.0816 23.9203 21.2782 23.5932 20.6106 22.9389C19.9503 22.2774 19.6202 21.4814 19.6202 20.5508V17.8138H28.1159V18.5989C28.1159 18.9624 28.2443 19.2714 28.5011 19.5258C28.7578 19.7803 29.0733 19.9075 29.4475 19.9075C29.807 19.9075 30.1151 19.7803 30.3719 19.5258C30.636 19.2714 30.7681 18.9624 30.7681 18.5989V18.0319C30.7681 17.6757 30.592 17.4576 30.2398 17.3776L21.3809 15.3821C20.2071 15.1277 19.6202 14.4007 19.6202 13.2012V9.42829C19.6202 8.50505 19.9503 7.71266 20.6106 7.05112C21.2782 6.38958 22.0816 6.05881 23.0207 6.05881ZM43.8638 6.05881H56.6954C57.6272 6.05881 58.4268 6.38958 59.0945 7.05112C59.7621 7.71266 60.0959 8.50505 60.0959 9.42829V12.1653H51.6002V11.3802C51.6002 11.024 51.4681 10.7187 51.204 10.4642C50.9472 10.2025 50.6391 10.0717 50.2796 10.0717C49.9128 10.0717 49.601 10.2025 49.3442 10.4642C49.0874 10.7187 48.959 11.024 48.959 11.3802V18.5989C48.959 18.9624 49.0874 19.2714 49.3442 19.5258C49.601 19.7803 49.9128 19.9075 50.2796 19.9075C50.6391 19.9075 50.9472 19.7803 51.204 19.5258C51.4681 19.2714 51.6002 18.9624 51.6002 18.5989V17.8138H60.0959V20.5508C60.0959 21.4814 59.7621 22.2774 59.0945 22.9389C58.4268 23.5932 57.6272 23.9203 56.6954 23.9203H43.8638C42.9247 23.9203 42.1214 23.5932 41.4537 22.9389C40.7934 22.2774 40.4633 21.4814 40.4633 20.5508V9.42829C40.4633 8.50505 40.7934 7.71266 41.4537 7.05112C42.1214 6.38958 42.9247 6.05881 43.8638 6.05881Z" stroke="#BBBBBB"/>
<path d="M77.4725 6.05881H85.0218L91.5257 23.9203H83.041L82.3036 21.9139H76.8232L76.1519 23.9203H70.9577L77.4725 6.05881ZM80.851 17.9011L79.4534 14.0954L78.1768 17.9011H80.851ZM108.968 6.05881C109.9 6.05881 110.7 6.38958 111.367 7.05112C112.035 7.71266 112.369 8.50505 112.369 9.42829V13.7465C112.369 14.677 112.035 15.473 111.367 16.1345C110.7 16.7888 109.9 17.1159 108.968 17.1159H101.232V23.9203H92.7472V6.05881H108.968ZM102.553 10.0717H101.232V13.114H102.553C102.912 13.114 103.22 12.9868 103.477 12.7323C103.741 12.4779 103.873 12.1689 103.873 11.8055V11.3802C103.873 11.024 103.741 10.7187 103.477 10.4642C103.22 10.2025 102.912 10.0717 102.553 10.0717ZM131 6.05881V10.0717H122.086V12.5252H131V16.538H122.086V19.9075H131V23.9203H113.59V6.05881H131Z" stroke="#BBBBBB"/>
<path d="M70.8371 1.37282L69.2333 1L68.5253 3.9903C68.4661 4.24046 68.2134 4.39568 67.9609 4.33699L64.9431 3.63547L64.755 4.43007L66.9416 5.67603C67.1192 5.77723 67.21 5.98085 67.1661 6.17913L63.1636 24.2411C63.1333 24.3778 63.1345 24.5195 63.1672 24.6557L63.9689 28L65.952 25.2777C66.0219 25.1816 66.0728 25.0733 66.1017 24.9583L70.6877 6.74588C70.7404 6.53668 70.9312 6.39075 71.1488 6.39329L73.3087 6.41847L73.4968 5.62387L70.479 4.92235C70.2266 4.86366 70.0699 4.61328 70.1291 4.36312L70.8371 1.37282Z" stroke="#BBBBBB"/>
</svg>
